<svg width="23" height="23" viewBox="0 0 23 23" fill="none" xmlns="http://www.w3.org/2000/svg">
<path d="M21.4628 16.5887L18.2687 13.3933C17.8398 12.9665 17.2654 12.7314 16.6516 12.7314C16.0129 12.7314 15.4098 12.9829 14.9538 13.4392L13.7104 14.6822C12.7443 14.1452 11.4602 13.4066 10.1271 12.0735C8.79544 10.7414 8.05677 9.46105 7.51703 8.48972L8.76153 7.24613C9.68679 6.31895 9.70571 4.83146 8.80385 3.93043L5.61047 0.736948C5.18271 0.308006 4.60832 0.0717773 3.99297 0.0717773C3.36848 0.0717773 2.77773 0.312212 2.32438 0.749838C2.05012 0.970709 0.673792 2.18568 0.160835 4.69131C-0.557359 8.19845 1.09277 11.5728 5.85648 16.3385C11.1779 21.6583 15.7209 22.0718 16.9865 22.0718C17.25 22.0718 17.4089 22.0555 17.4513 22.0506C19.9331 21.7597 20.8217 20.6575 21.4705 19.8527C22.3112 18.8097 22.3083 17.4373 21.4628 16.5887ZM20.4029 18.992C19.7931 19.7484 19.2171 20.4628 17.2918 20.6885C17.2908 20.6886 17.1855 20.7004 16.9865 20.7004C15.8542 20.7004 11.7748 20.3159 6.82617 15.3688C2.43317 10.974 0.89128 7.96012 1.50425 4.9663C1.95166 2.78082 3.13948 1.8519 3.18564 1.81662L3.2266 1.78636L3.26253 1.75034C3.46082 1.55223 3.72018 1.44307 3.99288 1.44307C4.24118 1.44307 4.47083 1.53614 4.64013 1.706L7.83425 4.90021C8.20176 5.26735 8.1822 5.88516 7.79119 6.27699L6.38379 7.68321L6.36066 7.70744C5.99388 8.11142 6.03703 8.65738 6.23907 9.01291C6.82205 10.065 7.62061 11.5058 9.15719 13.0429C10.6887 14.5743 12.1274 15.3723 13.1766 15.9541C13.2816 16.0131 13.4984 16.112 13.7699 16.112C14.0904 16.112 14.3847 15.9764 14.6025 15.7291L15.9234 14.4086C16.1206 14.2113 16.3791 14.1026 16.6514 14.1026C16.9003 14.1026 17.1311 14.196 17.3 14.364L20.492 17.5573C20.8974 17.9642 20.73 18.5863 20.4029 18.992Z" fill="white"/>
<path d="M13.3883 3.43156C14.5664 3.56714 15.9536 4.28076 16.9223 5.24954C17.9001 6.22727 18.6154 7.62855 18.7446 8.81948C18.7827 9.17081 19.0798 9.43117 19.4254 9.43117C19.4501 9.43117 19.4751 9.4298 19.5002 9.42715C19.8766 9.38628 20.1487 9.04803 20.1078 8.67156C19.9445 7.16615 19.0954 5.48339 17.892 4.27994C16.6999 3.08773 15.0343 2.24073 13.5451 2.06931C13.1691 2.02571 12.8289 2.29594 12.7856 2.67204C12.7422 3.04815 13.012 3.38823 13.3883 3.43156Z" fill="white"/>
<path d="M12.7475 6.30376C13.3847 6.37717 14.2665 6.84981 14.8442 7.42749C15.4268 8.0102 15.9004 8.90045 15.9701 9.5445C16.0083 9.89592 16.3054 10.1563 16.6509 10.1563C16.6756 10.1563 16.7006 10.1549 16.7256 10.1523C17.1021 10.1114 17.3743 9.77314 17.3334 9.39667C17.2142 8.29708 16.4842 7.12827 15.8137 6.4578C15.1493 5.79327 13.9919 5.06676 12.9043 4.94142C12.5277 4.89763 12.188 5.16796 12.1447 5.54406C12.1014 5.92025 12.3713 6.26042 12.7475 6.30376Z" fill="white"/>
</svg>
